<?xml version="1.0" encoding="utf-8"?>
<!-- Generator: Adobe Illustrator 28.2.0, SVG Export Plug-In . SVG Version: 6.00 Build 0)  -->
<svg version="1.1" id="Layer_1" xmlns="http://www.w3.org/2000/svg" xmlns:xlink="http://www.w3.org/1999/xlink" x="0px" y="0px"
	 viewBox="0 0 1000 1000" style="enable-background:new 0 0 1000 1000;" xml:space="preserve">
<style type="text/css">
	.st0{fill:#FFCD14;}
	.st1{fill:#FFCB11;}
	.st2{fill:#FFCC10;stroke:#000000;stroke-width:5;stroke-miterlimit:10;}
	.st3{fill:#FFFFFF;stroke:#FFCB11;stroke-width:5;stroke-miterlimit:10;}
	.st4{stroke:#FFCB11;stroke-width:5;stroke-miterlimit:10;}
</style>
<circle class="st1" cx="500" cy="500" r="396.83"/>
<g id="UV5Mur.tif_00000096041308038158210320000006608696706208845699_">
	<g>
		<path d="M635.69,306.05c20.57,8.26,28.59,18.15,28.43,35.74c-8.12,1.23-15.75,3.99-20.05-7.47c-1.41-3.76-9.07-7.56-13.89-7.58
			c-90.77-0.45-181.55-0.37-272.33-0.28c-10,0.01-15.76,5.38-16.92,15.06c-0.39,3.27-0.25,6.61-0.25,9.91
			c-0.01,118.77-0.01,237.54-0.01,356.31c0,21.09,3.82,24.74,25.79,24.74c86.32,0,172.65,0.01,258.97-0.01
			c16.11,0,21.69-5.09,21.84-20.64c0.21-21.83,0.06-43.67,0.06-65.51c0-3.55,0-7.1,0-11.23c6.2,0,11.17,0,16.68,0
			c0.35,1.8,0.9,3.34,0.9,4.88c0.03,25.47,0.37,50.95-0.16,76.42c-0.46,22.63-14.39,35.42-37.51,35.43
			c-89.06,0.04-178.13,0.04-267.19,0c-22.29-0.01-36.81-13.55-36.84-35.19c-0.15-124.73-0.17-249.45,0.03-374.18
			c0.03-18.68,10.62-30.55,28.72-36.41C446.54,306.05,541.12,306.05,635.69,306.05z"/>
		<path d="M749.52,403.98c-2.15,4.51-4.51,10.67-7.86,16.27c-37.08,62.09-74.68,123.9-111.26,186.26
			c-9.68,16.5-20.95,30.5-37.72,40.65c-10.98,6.65-20.78,15.11-31.59,22.05c-2.82,1.81-8.18,2.33-11.07,0.94
			c-2.45-1.18-4.63-6.22-4.18-9.16c3.71-24.16,7.63-48.31,12.49-72.28c1.26-6.21,5.95-11.8,9.26-17.57
			c35.71-62.46,71.45-124.9,107.21-187.32c1.82-3.18,3.85-6.24,5.87-9.31c11.47-17.43,23.42-20,41.01-8.1
			c10.76,7.28,23.43,13.22,26.04,27.76C748.19,396.76,748.67,399.34,749.52,403.98z M607.05,609.3
			c28.7-48.1,56.57-94.68,84.27-141.34c5.72-9.64,16.78-21.06,14.69-29.05c-2.36-9.03-16.77-15.13-25.97-22.47
			c-0.49-0.39-1.24-0.49-1.89-0.73c-0.51,0.39-1.21,0.67-1.5,1.18c-31.75,55.45-63.49,110.9-95.04,166.46
			c-0.97,1.71-0.75,5.61,0.54,6.69C589.83,596.49,597.98,602.39,607.05,609.3z M687.97,398.39c8.12,6.3,16.02,12.48,24,18.57
			c2.08,1.59,4.38,2.91,7.16,4.75c2.53-4.08,4.79-7.69,7.02-11.33c7.21-11.77,7.12-12.18-4.46-20.71
			C701.69,374.95,700.88,375.14,687.97,398.39z M573.02,607.84c-2,11.47-3.7,21.21-5.87,33.66c9.95-7.1,17.64-12.58,26.1-18.61
			C586.17,617.63,580.15,613.15,573.02,607.84z"/>
		<path d="M484.1,397.34c35.29,0,70.58,0.12,105.86-0.09c7.44-0.04,13.73,1.58,14,9.47c0.29,8.55-6.21,10.47-14.07,10.46
			c-70.58-0.11-141.15-0.09-211.73-0.04c-7.65,0.01-14.12-1.4-13.81-10.52c0.3-8.67,6.83-9.33,13.89-9.31
			C413.52,397.38,448.81,397.34,484.1,397.34z"/>
		<path d="M452.72,514.67c-25,0-50-0.05-75,0.03c-7.14,0.02-13.46-0.94-13.4-9.71c0.06-8.32,5.75-10.24,13.15-10.23
			c50,0.06,99.99,0.09,149.99-0.03c7.74-0.02,13.2,2.76,13.07,10.48c-0.13,7.28-5.56,9.6-12.82,9.54
			C502.72,514.54,477.72,514.67,452.72,514.67z"/>
		<path d="M420.3,593.66c15.04,0,30.09,0.21,45.13-0.09c7.1-0.14,11.53,2.57,11.69,9.34c0.18,7.36-4.52,10.22-12.01,10.17
			c-29.75-0.16-59.49-0.1-89.24-0.05c-6.72,0.01-11.44-2.11-11.59-9.41c-0.16-7.82,4.62-10.1,11.91-10.01
			C390.9,593.78,405.6,593.66,420.3,593.66z"/>
	</g>
</g>
<g>
	<path d="M306.14,255.03l-13.65,12.75l-4.86-5.21l3.62-3.38l-6.36-3.19l-13.32,12.44l2.64,6.67l4-3.74l4.86,5.21l-13.49,12.59
		l-4.86-5.21l3.29-3.07l-12.8-35.25L250,250.5l-4.86-5.21l11.46-10.7l41.24,18.45l3.45-3.22L306.14,255.03z M279.09,253.09
		l-16.23-8.04l-0.33,0.31l6.63,17L279.09,253.09z"/>
	<path d="M336.52,234.21l-10.59,7.5l-3.73-5.26c0.31,2.17,0.11,4.38-0.59,6.62c-0.71,2.25-2.3,4.25-4.79,6.02
		c-3.59,2.54-7.3,3.34-11.14,2.38c-3.84-0.96-7.27-3.58-10.31-7.86c-2.78-3.92-4.24-8.07-4.38-12.48c-0.15-4.4,1.9-8.1,6.14-11.11
		c2.16-1.53,4.3-2.39,6.41-2.57c2.11-0.18,4.09,0.18,5.95,1.07l-9.84-13.89l-5.94,4.21l-3.56-5.02l12.48-8.85l26.28,37.08l4.04-2.86
		L336.52,234.21z M316.56,228.5l-1.47-2.08c-1.66-2.25-3.64-3.58-5.94-3.97c-2.3-0.39-4.43,0.11-6.39,1.49
		c-2.2,1.56-3.4,3.65-3.6,6.27c-0.2,2.62,0.72,5.36,2.74,8.21c2.05,2.9,4.3,4.62,6.73,5.16c2.44,0.54,4.61,0.13,6.53-1.23
		c2.24-1.59,3.39-3.78,3.43-6.57S317.97,230.57,316.56,228.5z"/>
	<path d="M371.05,215.8l-11.44,6.12l-3.04-5.69c0.04,2.19-0.43,4.36-1.42,6.5s-2.82,3.93-5.51,5.37c-3.88,2.08-7.66,2.4-11.35,0.97
		c-3.69-1.43-6.77-4.46-9.24-9.09c-2.26-4.23-3.19-8.54-2.79-12.92c0.41-4.38,2.9-7.8,7.49-10.25c2.34-1.25,4.56-1.83,6.68-1.74
		c2.12,0.09,4.04,0.69,5.77,1.8l-8.03-15.01l-6.42,3.43l-2.9-5.42l13.49-7.22l21.43,40.08l4.37-2.33L371.05,215.8z M351.97,207.64
		l-1.2-2.25c-1.37-2.44-3.16-4.01-5.4-4.68c-2.23-0.68-4.41-0.45-6.52,0.68c-2.38,1.27-3.83,3.2-4.35,5.77
		c-0.52,2.58,0.04,5.41,1.69,8.49c1.67,3.13,3.69,5.12,6.04,5.96c2.35,0.84,4.56,0.71,6.63-0.4c2.42-1.3,3.83-3.33,4.23-6.09
		C353.48,212.36,353.11,209.87,351.97,207.64z"/>
	<path d="M377.52,179.72c1.98-1.94,3.83-3.43,5.53-4.49s3.76-1.99,6.18-2.81c3.55-1.2,6.78-1.29,9.69-0.27
		c2.91,1.02,4.97,3.33,6.19,6.93l4.86,14.35c0.64,1.89,1.74,2.58,3.31,2.05c0.43-0.14,0.94-0.42,1.54-0.84l1.49,4.17
		c-1.26,1.43-2.81,2.46-4.66,3.08c-4.03,1.37-6.92,0-8.68-4.11l-0.05-0.14c-0.39,1.98-1.22,3.92-2.5,5.83
		c-1.28,1.91-3.2,3.3-5.75,4.17c-2.23,0.75-4.65,0.82-7.26,0.2c-2.61-0.62-4.49-2.61-5.63-5.97c-1.33-3.93-0.65-7.05,2.05-9.37
		c2.7-2.31,5.87-4.09,9.52-5.33c0.9-0.3,1.83-0.59,2.79-0.87c0.96-0.27,1.86-0.5,2.7-0.68l-0.6-1.78c-0.64-1.89-1.55-3.49-2.73-4.78
		c-1.18-1.29-3.09-1.49-5.74-0.59c-0.99,0.34-1.91,0.73-2.73,1.16c-0.83,0.44-1.57,1.01-2.23,1.71l0.38,5.33l-6.33,1.43
		L377.52,179.72z M400.58,190.75l-0.38-1.14c-0.84,0.18-1.7,0.37-2.58,0.56c-0.88,0.2-1.78,0.44-2.68,0.75
		c-1.89,0.64-3.47,1.55-4.74,2.72c-1.27,1.17-1.56,2.75-0.89,4.74c0.98,2.89,3.01,3.81,6.08,2.77c1.8-0.61,3.28-1.84,4.45-3.69
		C401.01,195.61,401.26,193.37,400.58,190.75z"/>
	<path d="M471.04,184.68c-1.48,1.9-3.74,3.57-6.78,5.03c-3.04,1.46-6.26,2.45-9.67,2.97c-6.97,1.07-13.06-0.3-18.28-4.12
		s-8.38-9.29-9.47-16.41c-0.62-4-0.39-8.08,0.69-12.25c1.08-4.16,3.2-7.8,6.36-10.92c3.16-3.12,7.51-5.1,13.04-5.96
		c4.05-0.62,7.6-0.59,10.64,0.1c3.04,0.7,5.52,1.68,7.44,2.95l2.87,10.26l-6.64,1.71l-2.21-6.49c-3.26-1.47-6.97-1.88-11.12-1.24
		c-4.55,0.7-7.95,2.84-10.2,6.43c-2.25,3.59-2.96,8.12-2.11,13.61c0.88,5.73,3.01,9.84,6.38,12.33c3.37,2.49,7.43,3.37,12.17,2.64
		c3.95-0.61,7.08-1.8,9.39-3.57l0.08-7.37l6.85-0.37L471.04,184.68z"/>
	<path d="M493.05,188.59l-17.98,0.91l-0.31-6.14l5.02-0.25l-1.98-39.25l-5.32,0.27l-0.31-6.14l13.26-0.67l2.29,45.39l5.02-0.25
		L493.05,188.59z"/>
	<path d="M498.96,157.2c2.54-1.11,4.79-1.86,6.76-2.24c1.96-0.38,4.22-0.53,6.77-0.44c3.75,0.13,6.8,1.19,9.16,3.17
		c2.36,1.98,3.47,4.88,3.34,8.67l-0.53,15.14c-0.07,2,0.72,3.03,2.37,3.08c0.45,0.02,1.03-0.06,1.73-0.24l-0.08,4.42
		c-1.68,0.89-3.5,1.3-5.45,1.24c-4.25-0.15-6.47-2.45-6.66-6.91l0.01-0.15c-1.06,1.71-2.53,3.24-4.4,4.58
		c-1.87,1.33-4.16,1.96-6.86,1.86c-2.35-0.08-4.63-0.87-6.86-2.38c-2.23-1.5-3.28-4.03-3.15-7.58c0.14-4.15,1.89-6.83,5.23-8.04
		c3.34-1.21,6.94-1.75,10.79-1.61c0.95,0.03,1.92,0.09,2.92,0.18c1,0.08,1.92,0.19,2.77,0.32l0.07-1.87c0.07-2-0.22-3.81-0.86-5.43
		c-0.64-1.62-2.37-2.48-5.16-2.58c-1.05-0.04-2.04,0-2.97,0.12c-0.93,0.12-1.83,0.39-2.69,0.81l-1.53,5.12l-6.42-0.9L498.96,157.2z
		 M516.63,175.67l0.04-1.2c-0.85-0.13-1.72-0.26-2.61-0.39c-0.9-0.13-1.82-0.21-2.77-0.25c-2-0.07-3.8,0.22-5.4,0.86
		c-1.6,0.65-2.43,2.02-2.51,4.12c-0.11,3.05,1.46,4.63,4.71,4.74c1.9,0.07,3.72-0.56,5.47-1.87
		C515.32,180.37,516.34,178.36,516.63,175.67z"/>
	<path d="M559.82,183.8c-0.49,3.47-2.29,5.91-5.39,7.34s-6.86,1.83-11.27,1.21c-2.38-0.33-4.73-0.94-7.05-1.83
		c-2.33-0.88-4.38-2-6.15-3.37l2.4-8.45l6.15,1.47l-0.68,4.3c0.88,0.53,1.85,0.94,2.89,1.24c1.04,0.3,1.99,0.51,2.83,0.63
		c2.03,0.29,3.85,0.18,5.46-0.33c1.61-0.5,2.52-1.48,2.72-2.91c0.2-1.38-0.35-2.47-1.62-3.26c-1.28-0.79-2.91-1.48-4.89-2.09
		c-1.99-0.61-3.95-1.34-5.9-2.2c-1.95-0.85-3.51-2.04-4.69-3.54c-1.18-1.5-1.58-3.57-1.21-6.19c0.54-3.86,2.39-6.3,5.54-7.32
		c3.15-1.02,6.36-1.3,9.62-0.84c4.31,0.61,8.22,2.19,11.75,4.76l-0.35,8.36l-6.34-0.14l0.03-5.07c-1.83-1.01-3.73-1.66-5.71-1.94
		c-1.54-0.22-2.88-0.09-4.03,0.38c-1.15,0.47-1.82,1.37-2.01,2.71c-0.2,1.39,0.34,2.45,1.6,3.18c1.26,0.73,2.86,1.4,4.79,2
		c1.93,0.6,3.85,1.33,5.75,2.17c1.9,0.85,3.43,2.02,4.58,3.52C559.8,179.12,560.19,181.18,559.82,183.8z"/>
	<path d="M591.31,191.39c-0.84,3.4-2.87,5.65-6.1,6.76c-3.23,1.11-7.01,1.13-11.33,0.07c-2.33-0.57-4.61-1.42-6.83-2.53
		c-2.22-1.11-4.15-2.44-5.78-3.97l3.24-8.16l5.97,2.09l-1.11,4.21c0.83,0.62,1.74,1.12,2.75,1.53c1.01,0.4,1.92,0.71,2.75,0.91
		c1.99,0.49,3.81,0.57,5.47,0.23c1.65-0.34,2.65-1.21,3-2.62c0.33-1.36-0.09-2.5-1.29-3.41c-1.19-0.91-2.75-1.77-4.66-2.58
		c-1.91-0.8-3.8-1.73-5.65-2.78c-1.86-1.05-3.29-2.38-4.31-4c-1.02-1.61-1.21-3.71-0.58-6.28c0.93-3.79,3.01-6.03,6.25-6.73
		c3.23-0.7,6.46-0.65,9.66,0.14c4.22,1.04,7.96,3.01,11.21,5.92l-1.19,8.28l-6.3-0.78l0.54-5.04c-1.71-1.19-3.54-2.03-5.48-2.51
		c-1.51-0.37-2.86-0.38-4.05-0.03c-1.19,0.35-1.95,1.18-2.27,2.49c-0.33,1.36,0.09,2.47,1.27,3.32c1.18,0.86,2.7,1.68,4.57,2.48
		c1.86,0.79,3.7,1.71,5.5,2.74s3.21,2.36,4.2,3.97C591.76,186.72,591.94,188.81,591.31,191.39z"/>
	<path d="M668.13,188.46l-5.13-2.3l-17.05,37.97l-4.41-1.9l-10.78-41.92l-0.27-0.12l-10.91,24.29l6.5,2.92l-2.92,6.5l-18.54-8.32
		l2.92-6.5l4.93,2.21l14.13-31.47l-5.61-2.52l2.92-6.5l11.15,5.01l10.26,39.96l0.27,0.12l10.29-22.92l-6.5-2.92l2.92-6.5l18.75,8.42
		L668.13,188.46z"/>
	<path d="M688.64,230.86c-2.78,4.45-6.44,7.16-10.97,8.13c-4.53,0.97-9.04,0.05-13.53-2.76c-4.37-2.73-7.05-6.24-8.06-10.52
		c-1.01-4.29-0.1-8.67,2.71-13.17c2.6-4.15,6.08-6.94,10.45-8.37c4.37-1.42,9.01-0.6,13.93,2.48c4.96,3.1,7.74,6.91,8.34,11.41
		C692.11,222.57,691.16,226.83,688.64,230.86z M681.7,226.25c1.91-3.05,2.63-5.84,2.18-8.37c-0.46-2.53-1.85-4.52-4.18-5.98
		c-2.42-1.51-4.84-1.83-7.27-0.96c-2.43,0.87-4.55,2.74-6.35,5.63c-1.7,2.71-2.48,5.41-2.36,8.08c0.12,2.67,1.46,4.81,4,6.4
		c2.46,1.54,4.95,1.84,7.48,0.92C677.73,231.04,679.89,229.14,681.7,226.25z"/>
	<path d="M708.49,255.11c-5.1,5.03-10.4,5.41-15.89,1.15c-2.84-2.21-4.52-4.71-5.04-7.52c-0.51-2.8,0.27-5.55,2.36-8.24l10.85-13.98
		l-3.91-3.04l3.63-4.68l3.91,3.04l6.39-8.24l6.34,4.92l-6.39,8.24l9.89,7.68l-3.63,4.68l-9.89-7.68l-10.07,12.98
		c-2.18,2.81-2.04,5.16,0.41,7.06c0.67,0.52,1.61,0.86,2.83,1.01c1.21,0.15,2.77-0.68,4.69-2.49L708.49,255.11z"/>
	<path d="M732.29,276.94c-2.24,1.94-5.06,2.82-8.46,2.63c-3.4-0.18-6.76-1.84-10.07-4.96c-3.57-3.36-5.51-7.17-5.83-11.42
		c-0.32-4.25,1.44-8.42,5.29-12.49c3.53-3.75,7.53-5.89,11.99-6.43c4.46-0.54,8.56,0.96,12.31,4.49c3.38,3.19,5.11,6.73,5.19,10.62
		c0.08,3.89-1.32,7.4-4.2,10.52c-0.96,1.02-2.1,2.01-3.41,2.96l-16.53-15.59c-4,4.89-3.97,9.24,0.06,13.05
		c1.89,1.78,3.67,2.61,5.35,2.47c1.68-0.14,3.12-0.6,4.34-1.37L732.29,276.94z M732.81,263.93c1.52-1.32,2.48-3.01,2.88-5.07
		c0.4-2.06-0.37-4-2.29-5.82c-1.75-1.65-3.62-2.32-5.63-2.01c-2.01,0.31-3.93,1.21-5.76,2.71L732.81,263.93z"/>
</g>
</svg>
