<?xml version="1.0" encoding="utf-8"?>
<!-- Generator: Adobe Illustrator 28.2.0, SVG Export Plug-In . SVG Version: 6.00 Build 0)  -->
<svg version="1.1" id="Layer_1" xmlns="http://www.w3.org/2000/svg" xmlns:xlink="http://www.w3.org/1999/xlink" x="0px" y="0px"
	 viewBox="0 0 1000 1000" style="enable-background:new 0 0 1000 1000;" xml:space="preserve">
<style type="text/css">
	.st0{fill:#FFCD14;}
	.st1{fill:#FFCB11;}
	.st2{fill:#FFCC10;stroke:#000000;stroke-width:5;stroke-miterlimit:10;}
	.st3{fill:#FFFFFF;stroke:#FFCB11;stroke-width:5;stroke-miterlimit:10;}
	.st4{stroke:#FFCB11;stroke-width:5;stroke-miterlimit:10;}
</style>
<circle class="st1" cx="500" cy="500" r="396.83"/>
<g id="cnPqrI_00000100384409968183171720000010582392472459699097_">
	<g>
		<path d="M508.88,805.81c-51.84-0.38-94.29-4.18-135.82-15.49c-20.06-5.46-39.44-12.62-57.05-23.94
			c-10.05-6.46-18.98-14.13-25.43-24.36c-5.12-8.11-7.94-16.96-7.71-26.55c1.92-79.02,36.05-140.22,101.96-183.73
			c6.67-4.4,6.8-4.2,13.03,0.44c62.27,46.31,145.83,45.28,207.55-2.66c1.97-1.53,3.3-1.83,5.5-0.46
			c57.46,35.73,92.31,86.72,103.48,153.57c1.48,8.84,1.81,17.88,2.54,26.84c1.53,18.75-5.63,33.93-19.31,46.37
			c-13.55,12.32-29.59,20.29-46.53,26.65c-31.15,11.68-63.59,17.58-96.57,20.54C536.38,804.64,518.15,805.26,508.88,805.81z"/>
		<path d="M500.46,252.11c79.3,0.24,143.27,64.86,142.93,144.37c-0.34,79.13-64.9,142.91-144.32,142.55
			c-79.29-0.35-142.9-64.9-142.58-144.65C356.81,315.81,421.52,251.86,500.46,252.11z"/>
	</g>
</g>
<g>
	<path d="M150.02,447.52l-0.35,4.49l21.46,1.68c3.44,0.27,6.69,1.16,9.76,2.68c3.07,1.52,5.5,3.84,7.32,6.97
		c1.81,3.13,2.52,7.23,2.12,12.32c-0.57,7.33-2.99,12.28-7.26,14.85c-4.26,2.58-9.01,3.66-14.25,3.25l-22.28-1.75l-0.36,4.64
		l-7.1-0.56l1.49-18.99l7.1,0.56l-0.47,6.06l22.06,1.73c3.84,0.3,7.01-0.38,9.53-2.04c2.51-1.66,3.93-4.58,4.26-8.77
		c0.32-4.09-0.62-7.22-2.84-9.4c-2.21-2.18-5.44-3.43-9.67-3.77l-21.46-1.68l-0.49,6.21l-7.1-0.56l1.45-18.47L150.02,447.52z"/>
	<path d="M182.75,410.25c4.69,1.03,8.59,3.19,11.71,6.46s4.11,7.47,2.98,12.6c-1.04,4.74-3.51,7.8-7.4,9.2l13.84,3.05l1.44-6.52
		l6.15,1.36l-4.25,19.26l-6.15-1.36l1.08-4.91l-36.33-8.01l-1.13,5.13l-6.01-1.32l2.86-12.96l6.52,1.44
		c-1.75-1.36-3.13-3.08-4.16-5.18c-1.02-2.09-1.2-4.65-0.53-7.68c0.93-4.2,3.11-7.29,6.54-9.27
		C173.34,409.55,177.62,409.12,182.75,410.25z M181.76,418.56c-3.52-0.78-6.37-0.56-8.55,0.65c-2.19,1.21-3.55,3.06-4.1,5.55
		c-0.58,2.64-0.04,4.93,1.63,6.89c1.67,1.96,3.83,3.28,6.5,3.97l2.55,0.64c2.73,0.6,5.11,0.29,7.12-0.93
		c2.01-1.22,3.29-3.08,3.84-5.57c0.61-2.78,0.11-5.16-1.5-7.13C187.62,420.66,185.13,419.3,181.76,418.56z"/>
	<path d="M213.5,376.24l-4.37,12.22l-6.07-2.17c1.5,1.6,2.6,3.52,3.31,5.77s0.55,4.8-0.48,7.68c-1.48,4.14-4.07,6.92-7.76,8.33
		c-3.69,1.41-8.01,1.24-12.95-0.53c-4.52-1.62-8.1-4.19-10.74-7.71c-2.64-3.52-3.09-7.73-1.34-12.63c0.89-2.5,2.15-4.42,3.78-5.78
		c1.63-1.36,3.46-2.2,5.49-2.54l-16.03-5.74l-2.45,6.85l-5.79-2.07l5.16-14.41l42.79,15.31l1.67-4.66L213.5,376.24z M193.87,382.99
		l-2.4-0.86c-2.65-0.9-5.04-0.85-7.14,0.15c-2.11,1-3.57,2.63-4.38,4.89c-0.91,2.54-0.69,4.94,0.65,7.2
		c1.34,2.26,3.66,3.98,6.96,5.16c3.34,1.2,6.17,1.32,8.47,0.36c2.31-0.95,3.85-2.54,4.65-4.75c0.93-2.59,0.61-5.04-0.95-7.35
		C198.16,385.48,196.21,383.88,193.87,382.99z"/>
	<path d="M187.38,359.11c0.04-2.77,0.3-5.13,0.76-7.08c0.47-1.95,1.27-4.06,2.41-6.34c1.67-3.36,3.9-5.69,6.68-7.02
		c2.78-1.32,5.88-1.13,9.27,0.56l13.56,6.76c1.79,0.89,3.05,0.6,3.79-0.88c0.2-0.4,0.37-0.96,0.5-1.68l3.99,1.91
		c0.11,1.9-0.26,3.72-1.13,5.47c-1.9,3.8-4.91,4.87-9.05,3.2l-0.13-0.07c1.12,1.68,1.9,3.64,2.34,5.9c0.44,2.26,0.05,4.59-1.15,7.01
		c-1.05,2.1-2.72,3.85-5.01,5.25c-2.29,1.4-5.02,1.31-8.2-0.28c-3.71-1.85-5.43-4.55-5.14-8.09c0.29-3.54,1.29-7.04,3.01-10.48
		c0.42-0.85,0.88-1.71,1.37-2.58c0.49-0.87,0.97-1.67,1.44-2.38l-1.68-0.84c-1.79-0.89-3.56-1.38-5.3-1.47
		c-1.74-0.09-3.24,1.12-4.49,3.63c-0.47,0.94-0.84,1.86-1.12,2.75c-0.28,0.9-0.41,1.82-0.38,2.78l4.03,3.52l-3.48,5.47
		L187.38,359.11z M211.53,350.7l-1.07-0.54c-0.47,0.72-0.95,1.46-1.44,2.21c-0.49,0.76-0.95,1.57-1.37,2.42
		c-0.89,1.79-1.38,3.55-1.45,5.27s0.82,3.05,2.7,3.99c2.73,1.36,4.82,0.59,6.27-2.32c0.85-1.7,1.04-3.62,0.56-5.75
		S213.85,352.09,211.53,350.7z"/>
	<path d="M235.75,316.66c5.5,4.59,6.4,9.82,2.7,15.7c-1.92,3.05-4.25,4.96-6.99,5.75c-2.74,0.79-5.55,0.28-8.43-1.54l-14.98-9.43
		l-2.64,4.19l-5.01-3.16l2.64-4.19l-8.82-5.55l4.27-6.79l8.82,5.55l6.67-10.6l5.01,3.16l-6.67,10.6l13.9,8.75
		c3,1.89,5.33,1.53,6.98-1.1c0.45-0.72,0.69-1.69,0.72-2.91c0.03-1.22-0.95-2.69-2.94-4.42L235.75,316.66z"/>
	<path d="M255.15,290.83c2.15,2.04,3.3,4.76,3.45,8.17c0.15,3.4-1.17,6.9-3.95,10.5c-3,3.88-6.6,6.18-10.8,6.92
		c-4.2,0.73-8.52-0.61-12.95-4.04c-4.07-3.15-6.6-6.92-7.57-11.3c-0.97-4.38,0.12-8.61,3.27-12.69c2.84-3.68,6.2-5.75,10.06-6.21
		c3.86-0.46,7.49,0.59,10.88,3.15c1.11,0.86,2.2,1.89,3.28,3.11l-13.9,17.98c5.26,3.5,9.59,3.05,12.98-1.34
		c1.59-2.06,2.24-3.91,1.93-5.57c-0.3-1.65-0.9-3.05-1.79-4.18L255.15,290.83z M242.14,291.59c-1.46-1.38-3.24-2.17-5.33-2.37
		c-2.09-0.2-3.95,0.75-5.57,2.85c-1.47,1.9-1.95,3.83-1.45,5.8c0.5,1.97,1.59,3.79,3.26,5.46L242.14,291.59z"/>
	<path d="M291.89,213.2l-4.64,4.03l22.63,26.04l4.19-3.64l4.67,5.38l-14.09,12.25l-4.67-5.38l3.62-3.15l-15.3-17.6l-0.23,0.2
		l7.01,29.68l-2.83,2.46l-29.42-11.1l-0.23,0.2l15.74,18.11l3.85-3.35l4.67,5.38l-13.92,12.1l-4.67-5.38l4.19-3.64l-22.63-26.04
		l-4.64,4.04l-4.67-5.38l9.96-8.66l35.38,13.27l0.23-0.2l-8.89-36.29l10.02-8.71L291.89,213.2z"/>
	<path d="M334.69,203.5l-2.98,1.89l5.25,29.27l2.02,10.18l4.18-2.65l3.38,5.32l-15.2,9.65l-3.38-5.32l4.81-3.05l-2.24-9.68
		l-24.98-17.1l-3.1,1.97l-3.3-5.19l13.99-8.88l3.3,5.19l-3.61,2.29l16.35,11.21l0.38-0.24l-4.45-18.76l-3.23,2.05l-3.3-5.19
		l12.79-8.12L334.69,203.5z"/>
	<path d="M396.87,200.54c-0.98,2.2-2.77,4.36-5.37,6.5c-2.6,2.14-5.5,3.87-8.68,5.2c-6.51,2.71-12.75,2.83-18.74,0.37
		c-5.98-2.46-10.36-7.02-13.13-13.66c-1.56-3.74-2.31-7.76-2.26-12.06c0.05-4.3,1.24-8.34,3.56-12.13
		c2.32-3.78,6.07-6.75,11.24-8.91c3.78-1.58,7.24-2.39,10.36-2.45c3.12-0.05,5.76,0.31,7.93,1.08l5.24,9.27l-6.04,3.25l-3.7-5.77
		c-3.52-0.65-7.22-0.16-11.09,1.45c-4.25,1.77-7.03,4.67-8.37,8.69c-1.33,4.02-0.93,8.59,1.21,13.72c2.23,5.35,5.28,8.84,9.15,10.45
		c3.87,1.61,8.02,1.5,12.45-0.35c3.69-1.54,6.45-3.44,8.26-5.72l-1.69-7.18l6.56-2L396.87,200.54z"/>
	<path d="M431.13,178.6c1.37,5.07,0.87,9.59-1.5,13.57c-2.37,3.98-6.11,6.66-11.23,8.04c-4.97,1.34-9.37,0.93-13.2-1.25
		c-3.83-2.18-6.43-5.82-7.81-10.94c-1.28-4.73-0.95-9.18,0.98-13.35c1.93-4.17,5.69-7.01,11.29-8.53
		c5.65-1.53,10.33-0.98,14.04,1.65C427.41,170.41,429.89,174.02,431.13,178.6z M423.03,180.56c-0.94-3.48-2.49-5.91-4.65-7.29
		c-2.16-1.38-4.57-1.72-7.22-1c-2.75,0.74-4.64,2.3-5.65,4.67c-1.02,2.37-1.08,5.2-0.2,8.48c0.83,3.09,2.27,5.5,4.32,7.22
		c2.05,1.73,4.52,2.2,7.41,1.42c2.8-0.76,4.72-2.38,5.76-4.86C423.84,186.72,423.92,183.84,423.03,180.56z"/>
	<path d="M477.14,188.75l-17.82,2.51l-0.86-6.09l4.9-0.69l-1.84-13.07c-0.45-3.17-1.33-5.33-2.65-6.48c-1.32-1.15-3-1.58-5.03-1.3
		c-2.53,0.36-4.4,1.45-5.63,3.29c-1.23,1.84-1.7,3.95-1.42,6.33l1.87,13.29l4.98-0.7l0.86,6.09l-17.9,2.52l-0.86-6.09l4.98-0.7
		l-2.97-21.09l-5.2,0.73l-0.87-6.16l13.15-1.85l0.76,5.42c1.75-4.39,5.16-6.94,10.21-7.65c3.17-0.45,6.03,0.14,8.58,1.75
		c2.55,1.61,4.11,4.47,4.69,8.58l2.25,15.97l4.98-0.7L477.14,188.75z"/>
	<path d="M504.41,178.44c-0.72,7.13-4.56,10.8-11.51,11.02c-3.6,0.11-6.49-0.74-8.67-2.58c-2.18-1.83-3.33-4.45-3.44-7.85
		l-0.56-17.69l-4.95,0.16l-0.19-5.92l4.95-0.16l-0.33-10.42l8.02-0.25l0.33,10.42l12.52-0.4l0.19,5.92l-12.52,0.4l0.52,16.42
		c0.11,3.55,1.72,5.27,4.82,5.18c0.85-0.03,1.79-0.37,2.82-1.03c1.03-0.66,1.7-2.29,2.02-4.9L504.41,178.44z"/>
	<path d="M509.66,157.33c2.57-1.03,4.85-1.71,6.82-2.03c1.97-0.32,4.23-0.4,6.78-0.23c3.74,0.25,6.76,1.4,9.06,3.45
		c2.29,2.05,3.32,4.98,3.07,8.77l-0.99,15.12c-0.13,2,0.63,3.05,2.27,3.16c0.45,0.03,1.03-0.03,1.74-0.19l-0.21,4.42
		c-1.71,0.84-3.54,1.2-5.48,1.07c-4.24-0.28-6.39-2.65-6.45-7.11l0.01-0.15c-1.11,1.68-2.62,3.16-4.54,4.44
		c-1.91,1.28-4.22,1.83-6.91,1.65c-2.35-0.15-4.61-1.02-6.78-2.59c-2.18-1.57-3.15-4.13-2.92-7.67c0.27-4.14,2.1-6.76,5.48-7.87
		c3.38-1.11,6.99-1.53,10.83-1.28c0.95,0.06,1.92,0.15,2.91,0.27c0.99,0.12,1.91,0.25,2.75,0.41l0.12-1.87
		c0.13-1.99-0.1-3.81-0.69-5.46c-0.59-1.64-2.29-2.56-5.08-2.74c-1.05-0.07-2.04-0.06-2.97,0.03c-0.93,0.09-1.84,0.33-2.71,0.72
		l-1.69,5.08l-6.39-1.1L509.66,157.33z M526.75,176.34l0.08-1.2c-0.84-0.16-1.71-0.31-2.6-0.47c-0.89-0.16-1.81-0.27-2.76-0.33
		c-2-0.13-3.8,0.1-5.42,0.7c-1.62,0.6-2.5,1.94-2.63,4.04c-0.2,3.04,1.32,4.67,4.56,4.88c1.9,0.12,3.74-0.44,5.52-1.71
		C525.29,180.99,526.37,179.02,526.75,176.34z"/>
	<path d="M571.73,184.14c-0.86,2.89-2.67,5.51-5.41,7.85c-2.74,2.34-6.63,3.07-11.65,2.19c-4.73-0.83-8.33-2.93-10.81-6.31
		c-2.48-3.38-3.24-7.8-2.29-13.27c0.94-5.37,3.23-9.41,6.88-12.12c3.65-2.71,7.96-3.63,12.93-2.76c1.97,0.34,3.9,0.94,5.78,1.77
		c1.88,0.84,3.69,1.99,5.41,3.46l-0.3,9.54l-6.47-0.45l-0.15-5.66c-1.67-1.21-3.51-1.98-5.53-2.34c-5.52-0.96-8.92,2.25-10.21,9.64
		c-1.26,7.19,0.95,11.28,6.61,12.27c4.14,0.72,7.06-1.35,8.78-6.23L571.73,184.14z"/>
	<path d="M599.89,194.21c-2.8,6.59-7.56,8.96-14.26,7.12c-3.47-0.96-5.98-2.63-7.52-5.03c-1.54-2.4-1.86-5.23-0.96-8.51l4.71-17.06
		l-4.77-1.32l1.58-5.71l4.77,1.32l2.77-10.05l7.74,2.13l-2.77,10.05l12.07,3.33l-1.58,5.71l-12.07-3.33l-4.37,15.83
		c-0.94,3.42,0.08,5.54,3.07,6.37c0.82,0.23,1.82,0.18,3-0.15c1.18-0.32,2.3-1.69,3.38-4.08L599.89,194.21z"/>
	<path d="M629.16,216.43l-17.99-7.53l2.75-6.57l5.19,2.17l13.33-31.82l-5.19-2.17l2.75-6.57l17.99,7.53l-2.75,6.57l-5.12-2.14
		l-13.33,31.82l5.12,2.14L629.16,216.43z"/>
	<path d="M667.78,236.8l-15.79-8.64l2.95-5.4l4.34,2.38l6.33-11.58c1.54-2.81,2.12-5.07,1.74-6.78c-0.37-1.71-1.46-3.06-3.26-4.05
		c-2.24-1.22-4.4-1.47-6.48-0.73c-2.09,0.74-3.73,2.15-4.92,4.23l-6.44,11.78l4.41,2.41l-2.95,5.4l-15.86-8.67l2.95-5.4l4.41,2.41
		l10.22-18.69l-4.61-2.52l2.99-5.46l11.65,6.37l-2.63,4.8c4.03-2.47,8.28-2.48,12.76-0.03c2.81,1.54,4.75,3.71,5.83,6.53
		c1.08,2.81,0.63,6.04-1.37,9.68l-7.74,14.15l4.41,2.41L667.78,236.8z"/>
	<path d="M712.22,204.49c1.28,0.88,2.47,1.93,3.57,3.14c1.11,1.22,1.94,2.69,2.51,4.42l-3.72,7.91l-5.61-2.96l1.81-5.4
		c-0.63-0.85-1.37-1.58-2.23-2.18c-2.55-1.76-4.94-1.03-7.15,2.18l-3.79,5.5l6.98,4.81l-3.36,4.88l-6.98-4.81l-12.26,17.79
		l5.25,3.62l-3.49,5.06l-15.93-10.98l3.49-5.06l4.14,2.85l12.26-17.79l-3.64-2.51l3.36-4.88l3.64,2.51l3.15-4.57
		c2.07-3,4.78-4.91,8.12-5.7C705.67,201.52,708.97,202.25,712.22,204.49z"/>
	<path d="M723.95,259.48c-3.37,4.03-7.36,6.21-11.98,6.55c-4.62,0.34-8.96-1.19-13.03-4.59c-3.95-3.31-6.13-7.15-6.53-11.53
		c-0.41-4.38,1.09-8.61,4.49-12.67c3.14-3.76,6.98-6.04,11.5-6.85c4.52-0.81,9.01,0.65,13.46,4.37c4.49,3.75,6.72,7.91,6.7,12.45
		C728.53,251.74,726.99,255.83,723.95,259.48z M717.71,253.96c2.31-2.76,3.41-5.42,3.31-7.99c-0.1-2.56-1.21-4.73-3.32-6.49
		c-2.19-1.83-4.54-2.48-7.07-1.96c-2.53,0.53-4.88,2.09-7.06,4.7c-2.05,2.45-3.2,5.01-3.44,7.68c-0.24,2.67,0.79,4.96,3.09,6.89
		c2.22,1.86,4.65,2.51,7.28,1.94S715.52,256.57,717.71,253.96z"/>
	<path d="M753.06,264.58c1.56,1.62,2.57,3.56,3.03,5.83l-6.56,8.32l-4.86-3.96l3.27-4.93c-0.34-1.07-0.75-1.85-1.23-2.35
		c-0.97-1.01-2.23-1.48-3.77-1.42c-1.54,0.06-3.05,0.81-4.52,2.23l-10.73,10.37l4.64,4.8l-4.42,4.27l-13.71-14.18l4.42-4.27
		l3.49,3.61l15.32-14.8l-3.65-3.77l4.48-4.33l8.81,9.12l-4.53,4.38c1.78-0.89,3.61-1.32,5.48-1.28
		C749.88,262.24,751.57,263.03,753.06,264.58z"/>
	<path d="M771.61,344.33l-8.67-12.06l4.99-3.59l1.1,1.52l10.72-7.71c2.6-1.87,4.11-3.64,4.53-5.33c0.42-1.69,0.03-3.36-1.17-5.03
		c-1.55-2.15-3.41-3.2-5.58-3.14c-2.18,0.06-4.21,0.73-6.11,2.04l-10.66,7.66l2.93,4.08l-4.99,3.59l-8.67-12.06l4.99-3.59l1.05,1.46
		l10.72-7.71c2.6-1.87,4.11-3.65,4.53-5.33c0.42-1.69,0.04-3.34-1.12-4.97c-1.52-2.11-3.36-3.16-5.53-3.13
		c-2.17,0.02-4.21,0.68-6.1,1.98l-10.72,7.71l3.68,5.12l-4.99,3.59l-11.29-15.71l4.99-3.59l2.93,4.08l17.29-12.43l-2.89-4.02
		l5.05-3.63l7.57,10.54l-4.51,3.24c2.12-0.23,4.15,0.03,6.11,0.78c1.96,0.75,3.66,2.14,5.12,4.17c1.46,2.03,2.27,4.21,2.45,6.55
		c0.17,2.34-0.56,4.59-2.21,6.76c2.45-0.53,4.79-0.43,7.02,0.31c2.22,0.74,4.14,2.23,5.75,4.46c1.78,2.48,2.55,5.22,2.31,8.22
		c-0.24,3-2.05,5.72-5.42,8.14l-13.09,9.41l2.89,4.02L771.61,344.33z"/>
	<path d="M799.59,333.19c2.2,1.68,3.95,3.29,5.23,4.83s2.51,3.44,3.66,5.71c1.7,3.34,2.25,6.53,1.66,9.55
		c-0.59,3.02-2.58,5.4-5.97,7.12l-13.5,6.87c-1.78,0.91-2.3,2.09-1.55,3.57c0.21,0.4,0.55,0.87,1.05,1.4l-3.91,2.07
		c-1.59-1.04-2.83-2.43-3.72-4.17c-1.93-3.79-0.99-6.85,2.82-9.18l0.13-0.07c-2.01-0.1-4.06-0.64-6.13-1.63
		c-2.07-0.99-3.72-2.69-4.95-5.1c-1.07-2.09-1.48-4.48-1.24-7.15c0.24-2.67,1.94-4.81,5.11-6.42c3.7-1.88,6.89-1.65,9.56,0.69
		c2.68,2.34,4.89,5.23,6.63,8.66c0.43,0.85,0.85,1.73,1.26,2.64c0.41,0.91,0.76,1.77,1.06,2.58l1.67-0.85
		c1.78-0.91,3.23-2.03,4.34-3.38c1.11-1.35,1.03-3.27-0.24-5.77c-0.48-0.94-0.99-1.78-1.54-2.54c-0.55-0.76-1.22-1.41-2.01-1.96
		l-5.22,1.14l-2.32-6.06L799.59,333.19z M791.97,357.6l1.07-0.54c-0.3-0.8-0.6-1.63-0.92-2.48c-0.32-0.85-0.69-1.7-1.12-2.54
		c-0.91-1.78-2.03-3.22-3.37-4.3c-1.34-1.09-2.94-1.15-4.82-0.2c-2.72,1.38-3.34,3.52-1.87,6.42c0.86,1.69,2.29,2.99,4.29,3.88
		C787.23,358.72,789.48,358.64,791.97,357.6z"/>
	<path d="M804.89,397.3c-6.96,1.69-11.7-0.7-14.22-7.18c-1.31-3.35-1.46-6.37-0.46-9.04c1-2.67,3.08-4.62,6.25-5.85l16.5-6.42
		l-1.8-4.61l5.52-2.15l1.8,4.61l9.71-3.78l2.91,7.48l-9.71,3.78l4.54,11.67l-5.52,2.15l-4.54-11.67l-15.31,5.96
		c-3.31,1.29-4.4,3.38-3.28,6.26c0.31,0.79,0.94,1.56,1.91,2.32c0.96,0.75,2.73,0.84,5.3,0.27L804.89,397.3z"/>
	<path d="M800.8,418.59l-5.23-17.22l5.88-1.79l1.46,4.81l20.38-6.18l-1.55-5.1l5.96-1.81l3.85,12.7L805.22,412l1.46,4.81
		L800.8,418.59z M835.8,393.95l8.47-2.57l2.37,7.82l-8.47,2.57L835.8,393.95z"/>
	<path d="M824.96,450.53c-5.14,1.06-9.63,0.29-13.46-2.32c-3.83-2.61-6.28-6.5-7.35-11.69c-1.04-5.04-0.36-9.41,2.05-13.1
		c2.4-3.69,6.2-6.07,11.39-7.14c4.8-0.99,9.22-0.4,13.27,1.78c4.05,2.18,6.66,6.1,7.83,11.79c1.18,5.73,0.35,10.37-2.49,13.92
		C833.36,447.32,829.62,449.57,824.96,450.53z M823.5,442.33c3.53-0.73,6.04-2.13,7.56-4.2c1.51-2.07,1.99-4.46,1.43-7.15
		c-0.58-2.79-2.02-4.77-4.32-5.92c-2.31-1.16-5.12-1.39-8.46-0.71c-3.13,0.65-5.62,1.94-7.47,3.88c-1.85,1.94-2.47,4.38-1.86,7.31
		c0.59,2.84,2.09,4.85,4.5,6.04C817.3,442.77,820.17,443.02,823.5,442.33z"/>
	<path d="M812.08,495.89l-1.44-17.94l6.13-0.49l0.39,4.93l13.16-1.05c3.19-0.25,5.4-1.01,6.63-2.26c1.23-1.25,1.76-2.9,1.6-4.94
		c-0.2-2.54-1.19-4.48-2.95-5.82c-1.76-1.34-3.84-1.94-6.24-1.79l-13.38,1.07l0.4,5.01l-6.13,0.49l-1.44-18.02l6.13-0.49l0.4,5.01
		l21.23-1.7l-0.42-5.23l6.21-0.5l1.06,13.23l-5.46,0.44c4.27,2.01,6.62,5.56,7.02,10.65c0.26,3.19-0.5,6.01-2.26,8.46
		c-1.76,2.45-4.71,3.84-8.85,4.17l-16.07,1.29l0.4,5.01L812.08,495.89z"/>
</g>
</svg>
